M48
;Layer_Color=9474304
;FILE_FORMAT=2:3
INCH,LZ
;TYPE=PLATED
T1F00S00C0.012
T2F00S00C0.025
T3F00S00C0.039
T4F00S00C0.041
T5F00S00C0.051
;TYPE=NON_PLATED
T6F00S00C0.118
%
T01
X02Y0223
X0198Y0233
X0196Y0252
X0204Y026
X0208Y0256
X022
X0206Y0246
X0199Y0273
X02Y0279
Y0286
X0194Y0284
X0198Y0294
X0216Y0284
X0218Y028
X0226Y0278
X023
X0228Y0288
X0224
X0228Y0308
X0234
X0254Y0288
X02518Y02782
X0252Y027
Y0264
X0248Y0258
X0272Y02566
X027Y0279
X0276Y0278
X0282Y0274
X02729Y02959
X026Y0242
X0192Y0267
X0177Y0269
X0173Y0275
X0136Y0278
X02Y0314
X0212
X0198Y0332
X019Y0344
X0294Y0348
T02
X02208Y0225
X024
T03
X03144Y0225
X03242
X03377Y0255
X03475
X03573
X03575Y02925
X03477
X03378
X0328
X03045Y0225
X02947
X02848
X0275
X0155Y02328
Y02427
Y02525
Y02623
X01853Y03675
X01952
X0205
X02327Y03671
X02425
X02523
X02775Y03675
X02873
X02972
X0307
X03425Y03422
Y03323
Y03225
T04
X0295Y02575
X03048
X03Y02975
X02902
X03026Y03271
X03124
X0275Y03275
X02652
T05
X015Y033
Y035
T06
X035Y0225
X0125
Y037
X035
M30
