G04*
G04 #@! TF.GenerationSoftware,Altium Limited,Altium Designer,23.4.1 (23)*
G04*
G04 Layer_Color=16711935*
%FSLAX44Y44*%
%MOMM*%
G71*
G04*
G04 #@! TF.SameCoordinates,574EF0A3-D4D7-4E79-882F-14C39876F300*
G04*
G04*
G04 #@! TF.FilePolarity,Positive*
G04*
G01*
G75*
%ADD12C,0.2000*%
%ADD13C,0.1000*%
%ADD14C,0.1270*%
D12*
X394700Y559350D02*
G03*
X394700Y559350I-1000J0D01*
G01*
X433000Y889000D02*
G03*
X433000Y889000I-1000J0D01*
G01*
X439200Y933450D02*
G03*
X439200Y933450I-1000J0D01*
G01*
X559450Y932350D02*
G03*
X559450Y932350I-1000J0D01*
G01*
X812850Y933450D02*
G03*
X812850Y933450I-1000J0D01*
G01*
X870950Y786650D02*
G03*
X870950Y786650I-1000J0D01*
G01*
X802050Y742950D02*
G03*
X802050Y742950I-1000J0D01*
G01*
X941150Y647700D02*
G03*
X941150Y647700I-1000J0D01*
G01*
X706100Y755650D02*
G03*
X706100Y755650I-1000J0D01*
G01*
X737650Y830750D02*
G03*
X737650Y830750I-1000J0D01*
G01*
X642600Y831850D02*
G03*
X642600Y831850I-1000J0D01*
G01*
X857000Y571500D02*
G03*
X857000Y571500I-1000J0D01*
G01*
X807200Y654050D02*
G03*
X807200Y654050I-1000J0D01*
G01*
X454208Y623950D02*
X486208D01*
Y607950D02*
Y623950D01*
X454208Y607950D02*
X486208D01*
X454208D02*
Y623950D01*
X453592Y573150D02*
X485592D01*
Y557150D02*
Y573150D01*
X453592Y557150D02*
X485592D01*
X453592D02*
Y573150D01*
X657750Y719100D02*
Y754100D01*
X675750D01*
Y719100D02*
Y754100D01*
X657750Y719100D02*
X675750D01*
D13*
X548550Y739800D02*
G03*
X548550Y739800I-5000J0D01*
G01*
X534550Y678800D02*
Y748800D01*
X604550Y678800D02*
Y748800D01*
X534550D02*
X604550D01*
X534550Y678800D02*
X604550D01*
X580900Y817000D02*
Y834000D01*
X612900Y817000D02*
Y834000D01*
X580900D02*
X612900D01*
X580900Y817000D02*
X612900D01*
D14*
X541174Y594800D02*
G03*
X528450Y581624I226J-12950D01*
G01*
X641950D02*
G03*
X629226Y594800I-12950J226D01*
G01*
Y548200D02*
G03*
X641950Y561376I-226J12950D01*
G01*
X528450D02*
G03*
X541174Y548200I12950J-226D01*
G01*
X359700Y690850D02*
X417200D01*
Y566850D02*
Y690850D01*
X359700Y566850D02*
X417200D01*
X359700D02*
Y690850D01*
X340000Y812800D02*
Y914400D01*
Y812800D02*
X422000D01*
Y914400D01*
X340000D02*
X422000D01*
X446200Y899450D02*
X545200D01*
X446200D02*
Y956950D01*
X545200D01*
Y899450D02*
Y956950D01*
X665450Y898350D02*
Y955850D01*
X566450D02*
X665450D01*
X566450Y898350D02*
Y955850D01*
Y898350D02*
X665450D01*
X680350Y899450D02*
Y956950D01*
X804350D01*
Y899450D02*
Y956950D01*
X680350Y899450D02*
X804350D01*
X846450Y893650D02*
X903950D01*
X846450Y794650D02*
Y893650D01*
Y794650D02*
X903950D01*
Y893650D01*
X932550Y719450D02*
Y776950D01*
X808550Y719450D02*
X932550D01*
X808550D02*
Y776950D01*
X932550D01*
X833150Y624200D02*
Y681700D01*
Y624200D02*
X932150D01*
Y681700D01*
X833150D02*
X932150D01*
X712500Y721650D02*
Y779150D01*
X786500D01*
Y721650D02*
Y779150D01*
X712500Y721650D02*
X786500D01*
X744050Y796750D02*
Y854250D01*
X818050D01*
Y796750D02*
Y854250D01*
X744050Y796750D02*
X818050D01*
X649000Y797850D02*
Y855350D01*
X723000D01*
Y797850D02*
Y855350D01*
X649000Y797850D02*
X723000D01*
X528450Y561400D02*
Y581600D01*
X541150Y594800D02*
X629250D01*
X641950Y561400D02*
Y581600D01*
X541150Y548200D02*
X629250D01*
X674000Y548000D02*
Y605500D01*
Y548000D02*
X848000D01*
Y605500D01*
X674000D02*
X848000D01*
X724800Y688050D02*
X798800D01*
X724800Y630550D02*
Y688050D01*
Y630550D02*
X798800D01*
Y688050D01*
M02*
