G04*
G04 #@! TF.GenerationSoftware,Altium Limited,Altium Designer,23.4.1 (23)*
G04*
G04 Layer_Physical_Order=2*
G04 Layer_Color=16711680*
%FSLAX44Y44*%
%MOMM*%
G71*
G04*
G04 #@! TF.SameCoordinates,574EF0A3-D4D7-4E79-882F-14C39876F300*
G04*
G04*
G04 #@! TF.FilePolarity,Positive*
G04*
G01*
G75*
%ADD11C,0.6000*%
%ADD41C,0.5000*%
%ADD42C,3.0000*%
%ADD43R,1.5080X1.5080*%
%ADD44C,1.5080*%
%ADD45C,1.9500*%
%ADD46R,1.9500X1.9500*%
%ADD47R,1.5080X1.5080*%
%ADD48C,1.5750*%
%ADD49R,1.5750X1.5750*%
%ADD50C,1.0300*%
%ADD51C,0.6000*%
G36*
X911860Y973321D02*
X914057Y973321D01*
X918414Y972747D01*
X922658Y971610D01*
X926718Y969929D01*
X930523Y967731D01*
X934009Y965056D01*
X937116Y961949D01*
X939791Y958463D01*
X941988Y954658D01*
X943670Y950598D01*
X944807Y946354D01*
X945381Y941997D01*
X945381Y939800D01*
X945381Y568960D01*
Y566763D01*
X944807Y562406D01*
X943670Y558162D01*
X941988Y554102D01*
X939791Y550297D01*
X937116Y546811D01*
X934009Y543704D01*
X930523Y541029D01*
X926718Y538831D01*
X922658Y537150D01*
X918413Y536013D01*
X914057Y535439D01*
X911860D01*
X320040Y535439D01*
X317843Y535439D01*
X313486Y536012D01*
X309242Y537150D01*
X305182Y538831D01*
X301377Y541029D01*
X297891Y543703D01*
X294784Y546811D01*
X292108Y550297D01*
X289911Y554102D01*
X288230Y558162D01*
X287093Y562406D01*
X286519Y566763D01*
X286519Y568960D01*
X286519Y939800D01*
Y941997D01*
X287093Y946354D01*
X288230Y950598D01*
X289912Y954658D01*
X292108Y958463D01*
X294784Y961949D01*
X297891Y965057D01*
X301377Y967731D01*
X305182Y969928D01*
X309242Y971610D01*
X313486Y972747D01*
X317843Y973321D01*
X320040Y973321D01*
X911860Y973321D01*
D02*
G37*
%LPC*%
G36*
X706010Y942260D02*
X705485D01*
Y934085D01*
X713660D01*
Y934610D01*
X713060Y936851D01*
X711900Y938859D01*
X710259Y940500D01*
X708251Y941660D01*
X706010Y942260D01*
D02*
G37*
G36*
X496860D02*
X496335D01*
Y934085D01*
X504510D01*
Y934610D01*
X503909Y936851D01*
X502749Y938859D01*
X501109Y940500D01*
X499100Y941660D01*
X496860Y942260D01*
D02*
G37*
G36*
X704215D02*
X703690D01*
X701450Y941660D01*
X699441Y940500D01*
X697800Y938859D01*
X696640Y936851D01*
X696040Y934610D01*
Y934085D01*
X704215D01*
Y942260D01*
D02*
G37*
G36*
X495065D02*
X494540D01*
X492299Y941660D01*
X490290Y940500D01*
X488650Y938859D01*
X487490Y936851D01*
X486890Y934610D01*
Y934085D01*
X495065D01*
Y942260D01*
D02*
G37*
G36*
X617110Y941160D02*
X616585D01*
Y932985D01*
X624760D01*
Y933510D01*
X624160Y935751D01*
X623000Y937760D01*
X621359Y939400D01*
X619351Y940560D01*
X617110Y941160D01*
D02*
G37*
G36*
X615315D02*
X614790D01*
X612550Y940560D01*
X610541Y939400D01*
X608900Y937760D01*
X607740Y935751D01*
X607140Y933510D01*
Y932985D01*
X615315D01*
Y941160D01*
D02*
G37*
G36*
X788660Y942260D02*
X771040D01*
Y924640D01*
X788660D01*
Y942260D01*
D02*
G37*
G36*
X756010D02*
X753690D01*
X751449Y941660D01*
X749440Y940500D01*
X747800Y938859D01*
X746640Y936851D01*
X746040Y934610D01*
Y932290D01*
X746508Y930544D01*
X728802Y912838D01*
X727969Y911591D01*
X727676Y910120D01*
X727676Y910120D01*
Y819472D01*
X709608Y801404D01*
X645160D01*
X643689Y801111D01*
X642442Y800278D01*
X642442Y800278D01*
X577730Y735566D01*
X576701Y735140D01*
X575500Y733939D01*
X575074Y732909D01*
X573677Y732510D01*
X572815Y733372D01*
X572580Y733939D01*
X571379Y735140D01*
X569888Y735757D01*
X568867Y736778D01*
X567620Y737611D01*
X566149Y737904D01*
X566149Y737904D01*
X459740D01*
X459740Y737904D01*
X458269Y737611D01*
X457022Y736778D01*
X430208Y709964D01*
X347318D01*
X346289Y710390D01*
X344591D01*
X343021Y709740D01*
X341820Y708539D01*
X341170Y706969D01*
Y705271D01*
X341820Y703701D01*
X343021Y702500D01*
X344591Y701850D01*
X346289D01*
X347318Y702276D01*
X431800D01*
X431800Y702276D01*
X433271Y702569D01*
X434518Y703402D01*
X461332Y730216D01*
X564557D01*
X565105Y729668D01*
X565340Y729101D01*
X566541Y727900D01*
X568032Y727283D01*
X576673Y718642D01*
X576673Y718642D01*
X577920Y717809D01*
X578401Y717713D01*
X578819Y716335D01*
X572650Y710166D01*
X571621Y709740D01*
X570420Y708539D01*
X569770Y706969D01*
Y705271D01*
X570420Y703701D01*
X571621Y702500D01*
X573191Y701850D01*
X574889D01*
X576459Y702500D01*
X577660Y703701D01*
X578086Y704730D01*
X578757Y705401D01*
X580074Y704922D01*
X580580Y703701D01*
X581781Y702500D01*
X582810Y702074D01*
X624450Y660434D01*
X624256Y659610D01*
X623960Y659164D01*
X563880D01*
X563880Y659164D01*
X562409Y658871D01*
X561162Y658038D01*
X561162Y658038D01*
X557410Y654286D01*
X556381Y653860D01*
X555180Y652659D01*
X554530Y651089D01*
Y649391D01*
X555180Y647821D01*
X556381Y646620D01*
X557951Y645970D01*
X559649D01*
X561219Y646620D01*
X562420Y647821D01*
X562846Y648850D01*
X565472Y651476D01*
X628042D01*
X629071Y651050D01*
X630769D01*
X632339Y651700D01*
X633540Y652901D01*
X634190Y654471D01*
Y656169D01*
X633540Y657739D01*
X633452Y657826D01*
X633979Y659096D01*
X657860D01*
X657860Y659096D01*
X658302Y659184D01*
X658928Y658014D01*
X644838Y643924D01*
X540072D01*
X532366Y651630D01*
X531940Y652659D01*
X530739Y653860D01*
X529169Y654510D01*
X527471D01*
X525901Y653860D01*
X524700Y652659D01*
X524083Y651168D01*
X520522Y647607D01*
X519689Y646360D01*
X519396Y644889D01*
X519396Y644889D01*
Y626718D01*
X518970Y625689D01*
Y623991D01*
X519620Y622421D01*
X520821Y621220D01*
X522391Y620570D01*
X524089D01*
X525659Y621220D01*
X526860Y622421D01*
X527510Y623991D01*
Y625689D01*
X527084Y626718D01*
Y643297D01*
X528455Y644669D01*
X535762Y637362D01*
X535762Y637362D01*
X537009Y636529D01*
X538480Y636236D01*
X538480Y636236D01*
X646430D01*
X646430Y636236D01*
X647901Y636529D01*
X649148Y637362D01*
X758820Y747034D01*
X760796Y746505D01*
X763204D01*
X765530Y747128D01*
X767615Y748332D01*
X769318Y750035D01*
X770522Y752120D01*
X771145Y754446D01*
Y756854D01*
X770522Y759180D01*
X769318Y761265D01*
X767615Y762968D01*
X765530Y764172D01*
X763204Y764795D01*
X760796D01*
X758470Y764172D01*
X756385Y762968D01*
X754682Y761265D01*
X753478Y759180D01*
X752855Y756854D01*
Y754446D01*
X753384Y752470D01*
X747412Y746498D01*
X746145Y747027D01*
X746145Y747559D01*
Y755015D01*
X737635D01*
Y746505D01*
X745009D01*
X745623Y746505D01*
X746152Y745238D01*
X706580Y705666D01*
X705310Y706192D01*
Y706969D01*
X704660Y708539D01*
X703459Y709740D01*
X701889Y710390D01*
X700191D01*
X698621Y709740D01*
X697420Y708539D01*
X696994Y707510D01*
X656268Y666784D01*
X644139D01*
X643613Y668054D01*
X643700Y668141D01*
X644350Y669711D01*
Y671409D01*
X643924Y672438D01*
Y683922D01*
X644350Y684951D01*
Y686649D01*
X643700Y688219D01*
X643340Y688579D01*
Y704826D01*
X643766Y705854D01*
Y707553D01*
X643116Y709123D01*
X642262Y709976D01*
X642754Y711246D01*
X643537D01*
X643537Y711246D01*
X645008Y711539D01*
X646255Y712372D01*
X717439Y783556D01*
X726440D01*
X726440Y783556D01*
X727911Y783849D01*
X729158Y784682D01*
X749478Y805002D01*
X749478Y805002D01*
X750311Y806249D01*
X750604Y807720D01*
X750604Y807720D01*
Y882042D01*
X751030Y883071D01*
Y884769D01*
X750380Y886339D01*
X749179Y887540D01*
X747609Y888190D01*
X745911D01*
X744341Y887540D01*
X743140Y886339D01*
X742490Y884769D01*
Y883071D01*
X742916Y882042D01*
Y809312D01*
X724848Y791244D01*
X715847D01*
X715847Y791244D01*
X714376Y790951D01*
X713129Y790118D01*
X650274Y727263D01*
X649004Y727789D01*
Y729642D01*
X649430Y730671D01*
Y732369D01*
X648780Y733939D01*
X647579Y735140D01*
X646009Y735790D01*
X644311D01*
X642741Y735140D01*
X641540Y733939D01*
X640890Y732369D01*
Y730671D01*
X641316Y729642D01*
Y728032D01*
X638488Y725204D01*
X580983D01*
X580110Y726077D01*
X580509Y727474D01*
X581539Y727900D01*
X582740Y729101D01*
X583166Y730130D01*
X646752Y793716D01*
X711200D01*
X711200Y793716D01*
X712671Y794009D01*
X713918Y794842D01*
X734238Y815162D01*
X734238Y815162D01*
X735071Y816409D01*
X735364Y817880D01*
X735364Y817880D01*
Y908528D01*
X751944Y925108D01*
X753690Y924640D01*
X756010D01*
X758250Y925240D01*
X760259Y926400D01*
X761900Y928040D01*
X763059Y930050D01*
X763660Y932290D01*
Y934610D01*
X763059Y936851D01*
X761900Y938859D01*
X760259Y940500D01*
X758250Y941660D01*
X756010Y942260D01*
D02*
G37*
G36*
X731010D02*
X728690D01*
X726450Y941660D01*
X724441Y940500D01*
X722801Y938859D01*
X721641Y936851D01*
X721040Y934610D01*
Y932290D01*
X721641Y930050D01*
X722801Y928040D01*
X724441Y926400D01*
X726450Y925240D01*
X728690Y924640D01*
X731010D01*
X733251Y925240D01*
X735260Y926400D01*
X736900Y928040D01*
X738060Y930050D01*
X738660Y932290D01*
Y934610D01*
X738060Y936851D01*
X736900Y938859D01*
X735260Y940500D01*
X733251Y941660D01*
X731010Y942260D01*
D02*
G37*
G36*
X713660Y932815D02*
X705485D01*
Y924640D01*
X706010D01*
X708251Y925240D01*
X710259Y926400D01*
X711900Y928040D01*
X713060Y930050D01*
X713660Y932290D01*
Y932815D01*
D02*
G37*
G36*
X704215D02*
X696040D01*
Y932290D01*
X696640Y930050D01*
X697800Y928040D01*
X699441Y926400D01*
X701450Y925240D01*
X703690Y924640D01*
X704215D01*
Y932815D01*
D02*
G37*
G36*
X504510D02*
X496335D01*
Y924640D01*
X496860D01*
X499100Y925240D01*
X501109Y926400D01*
X502749Y928040D01*
X503909Y930050D01*
X504510Y932290D01*
Y932815D01*
D02*
G37*
G36*
X495065D02*
X486890D01*
Y932290D01*
X487490Y930050D01*
X488650Y928040D01*
X490290Y926400D01*
X492299Y925240D01*
X494540Y924640D01*
X495065D01*
Y932815D01*
D02*
G37*
G36*
X479510Y942260D02*
X461890D01*
Y924640D01*
X479510D01*
Y942260D01*
D02*
G37*
G36*
X624760Y931715D02*
X616585D01*
Y923540D01*
X617110D01*
X619351Y924141D01*
X621359Y925300D01*
X623000Y926941D01*
X624160Y928950D01*
X624760Y931190D01*
Y931715D01*
D02*
G37*
G36*
X615315D02*
X607140D01*
Y931190D01*
X607740Y928950D01*
X608900Y926941D01*
X610541Y925300D01*
X612550Y924141D01*
X614790Y923540D01*
X615315D01*
Y931715D01*
D02*
G37*
G36*
X599760Y941160D02*
X582140D01*
Y923540D01*
X599760D01*
Y941160D01*
D02*
G37*
G36*
X890724Y957300D02*
X887276D01*
X883895Y956628D01*
X880711Y955308D01*
X877844Y953393D01*
X875407Y950956D01*
X873492Y948089D01*
X872172Y944905D01*
X871500Y941524D01*
Y938076D01*
X872172Y934695D01*
X873492Y931511D01*
X875407Y928644D01*
X877844Y926207D01*
X880711Y924292D01*
X883895Y922972D01*
X887276Y922300D01*
X890724D01*
X894105Y922972D01*
X897289Y924292D01*
X900156Y926207D01*
X902593Y928644D01*
X904508Y931511D01*
X905827Y934695D01*
X906500Y938076D01*
Y941524D01*
X905827Y944905D01*
X904508Y948089D01*
X902593Y950956D01*
X900156Y953393D01*
X897289Y955308D01*
X894105Y956628D01*
X890724Y957300D01*
D02*
G37*
G36*
X319224D02*
X315776D01*
X312395Y956628D01*
X309211Y955308D01*
X306344Y953393D01*
X303907Y950956D01*
X301992Y948089D01*
X300672Y944905D01*
X300000Y941524D01*
Y938076D01*
X300672Y934695D01*
X301992Y931511D01*
X303907Y928644D01*
X306344Y926207D01*
X309211Y924292D01*
X312395Y922972D01*
X315776Y922300D01*
X319224D01*
X322605Y922972D01*
X325789Y924292D01*
X328656Y926207D01*
X331093Y928644D01*
X333008Y931511D01*
X334328Y934695D01*
X335000Y938076D01*
Y941524D01*
X334328Y944905D01*
X333008Y948089D01*
X331093Y950956D01*
X328656Y953393D01*
X325789Y955308D01*
X322605Y956628D01*
X319224Y957300D01*
D02*
G37*
G36*
X392020Y900020D02*
X369980D01*
Y877980D01*
X392020D01*
Y900020D01*
D02*
G37*
G36*
X871110Y877960D02*
X868790D01*
X866550Y877359D01*
X864540Y876200D01*
X862900Y874559D01*
X861740Y872550D01*
X861140Y870310D01*
Y867990D01*
X861740Y865749D01*
X862900Y863740D01*
X864540Y862100D01*
X866550Y860940D01*
X868790Y860340D01*
X871110D01*
X873351Y860940D01*
X875359Y862100D01*
X877000Y863740D01*
X878160Y865749D01*
X878760Y867990D01*
Y870310D01*
X878160Y872550D01*
X877000Y874559D01*
X875359Y876200D01*
X873351Y877359D01*
X871110Y877960D01*
D02*
G37*
G36*
X482600Y878114D02*
X482179Y878030D01*
X481751D01*
X481354Y877866D01*
X480934Y877782D01*
X480577Y877544D01*
X480181Y877380D01*
X479878Y877077D01*
X479521Y876839D01*
X479283Y876482D01*
X478980Y876179D01*
X478816Y875783D01*
X478578Y875426D01*
X478494Y875005D01*
X478330Y874609D01*
Y874181D01*
X478246Y873760D01*
X478330Y873339D01*
Y872911D01*
X478494Y872514D01*
X478578Y872094D01*
X478816Y871737D01*
X478980Y871341D01*
X479283Y871038D01*
X479521Y870682D01*
X498566Y851637D01*
Y843280D01*
X498650Y842859D01*
Y842431D01*
X498814Y842035D01*
X498898Y841614D01*
X499136Y841257D01*
X499300Y840861D01*
X499603Y840558D01*
X499841Y840201D01*
X500198Y839963D01*
X500501Y839660D01*
X500897Y839496D01*
X501254Y839258D01*
X501674Y839174D01*
X502071Y839010D01*
X502500D01*
X502920Y838926D01*
X503340Y839010D01*
X503769D01*
X504165Y839174D01*
X504586Y839258D01*
X504943Y839496D01*
X505339Y839660D01*
X505642Y839963D01*
X505998Y840201D01*
X506237Y840558D01*
X506540Y840861D01*
X506704Y841257D01*
X506942Y841614D01*
X507026Y842035D01*
X507190Y842431D01*
Y842859D01*
X507274Y843280D01*
Y853440D01*
X506942Y855106D01*
X505998Y856518D01*
X485678Y876839D01*
X485322Y877077D01*
X485019Y877380D01*
X484623Y877544D01*
X484266Y877782D01*
X483845Y877866D01*
X483449Y878030D01*
X483021D01*
X482600Y878114D01*
D02*
G37*
G36*
X382451Y849220D02*
X381635D01*
Y838835D01*
X392020D01*
Y839651D01*
X391269Y842454D01*
X389818Y844966D01*
X387766Y847018D01*
X385254Y848469D01*
X382451Y849220D01*
D02*
G37*
G36*
X380365D02*
X379549D01*
X376746Y848469D01*
X374234Y847018D01*
X372182Y844966D01*
X370731Y842454D01*
X369980Y839651D01*
Y838835D01*
X380365D01*
Y849220D01*
D02*
G37*
G36*
X871110Y852960D02*
X868790D01*
X866550Y852360D01*
X864540Y851200D01*
X862900Y849560D01*
X861740Y847551D01*
X861140Y845310D01*
Y842990D01*
X861456Y841813D01*
X845282Y825639D01*
X844338Y824226D01*
X844006Y822560D01*
Y789940D01*
X844338Y788274D01*
X845282Y786861D01*
X853697Y778447D01*
Y750609D01*
X852641Y750000D01*
X851000Y748360D01*
X849840Y746350D01*
X849240Y744110D01*
Y741790D01*
X849840Y739549D01*
X851000Y737541D01*
X852641Y735900D01*
X853697Y735291D01*
Y714210D01*
X854028Y712544D01*
X854972Y711131D01*
X903297Y662806D01*
Y656510D01*
X898840D01*
Y638890D01*
X916460D01*
Y656510D01*
X912004D01*
Y664610D01*
X911672Y666276D01*
X910729Y667688D01*
X862404Y716013D01*
Y735291D01*
X863460Y735900D01*
X865100Y737541D01*
X866260Y739549D01*
X866860Y741790D01*
Y744110D01*
X866260Y746350D01*
X865100Y748360D01*
X863460Y750000D01*
X862404Y750609D01*
Y780250D01*
X862072Y781916D01*
X861129Y783328D01*
X852714Y791743D01*
Y820757D01*
X859870Y827913D01*
X861140Y827387D01*
X861140Y826927D01*
Y819785D01*
X869315D01*
Y827960D01*
X862226D01*
X861713Y827960D01*
X861187Y829230D01*
X867613Y835656D01*
X868790Y835340D01*
X871110D01*
X873351Y835941D01*
X875359Y837101D01*
X877000Y838741D01*
X878160Y840750D01*
X878760Y842990D01*
Y845310D01*
X878160Y847551D01*
X877000Y849560D01*
X875359Y851200D01*
X873351Y852360D01*
X871110Y852960D01*
D02*
G37*
G36*
X682645Y840995D02*
X674135D01*
Y832485D01*
X682645D01*
Y840995D01*
D02*
G37*
G36*
X672865D02*
X664355D01*
Y832485D01*
X672865D01*
Y840995D01*
D02*
G37*
G36*
X777695Y839895D02*
X769185D01*
Y831385D01*
X777695D01*
Y839895D01*
D02*
G37*
G36*
X767915D02*
X759405D01*
Y831385D01*
X767915D01*
Y839895D01*
D02*
G37*
G36*
X392020Y837565D02*
X381635D01*
Y827180D01*
X382451D01*
X385254Y827931D01*
X387766Y829382D01*
X389818Y831434D01*
X391269Y833946D01*
X392020Y836749D01*
Y837565D01*
D02*
G37*
G36*
X380365D02*
X369980D01*
Y836749D01*
X370731Y833946D01*
X372182Y831434D01*
X374234Y829382D01*
X376746Y827931D01*
X379549Y827180D01*
X380365D01*
Y837565D01*
D02*
G37*
G36*
X699704Y840995D02*
X697296D01*
X694970Y840372D01*
X692885Y839168D01*
X691182Y837465D01*
X689978Y835380D01*
X689355Y833054D01*
Y830646D01*
X689978Y828320D01*
X691182Y826235D01*
X692885Y824532D01*
X694970Y823328D01*
X697296Y822705D01*
X699704D01*
X702030Y823328D01*
X704115Y824532D01*
X705818Y826235D01*
X707022Y828320D01*
X707645Y830646D01*
Y833054D01*
X707022Y835380D01*
X705818Y837465D01*
X704115Y839168D01*
X702030Y840372D01*
X699704Y840995D01*
D02*
G37*
G36*
X682645Y831215D02*
X674135D01*
Y822705D01*
X682645D01*
Y831215D01*
D02*
G37*
G36*
X672865D02*
X664355D01*
Y822705D01*
X672865D01*
Y831215D01*
D02*
G37*
G36*
X794754Y839895D02*
X792346D01*
X790020Y839272D01*
X787935Y838068D01*
X786232Y836365D01*
X785028Y834280D01*
X784405Y831954D01*
Y829546D01*
X785028Y827220D01*
X786232Y825135D01*
X787935Y823432D01*
X790020Y822228D01*
X792346Y821605D01*
X794754D01*
X797080Y822228D01*
X799165Y823432D01*
X800868Y825135D01*
X802072Y827220D01*
X802695Y829546D01*
Y831954D01*
X802072Y834280D01*
X800868Y836365D01*
X799165Y838068D01*
X797080Y839272D01*
X794754Y839895D01*
D02*
G37*
G36*
X777695Y830115D02*
X769185D01*
Y821605D01*
X777695D01*
Y830115D01*
D02*
G37*
G36*
X767915D02*
X759405D01*
Y821605D01*
X767915D01*
Y830115D01*
D02*
G37*
G36*
X870585Y827960D02*
Y819785D01*
X878760D01*
Y827960D01*
X870585D01*
D02*
G37*
G36*
X878760Y818515D02*
X870585D01*
Y810340D01*
X878760D01*
Y818515D01*
D02*
G37*
G36*
X869315D02*
X861140D01*
Y810340D01*
X869315D01*
Y818515D01*
D02*
G37*
G36*
X642110Y941160D02*
X639790D01*
X637550Y940560D01*
X635541Y939400D01*
X633900Y937760D01*
X632741Y935751D01*
X632140Y933510D01*
Y931190D01*
X632741Y928950D01*
X633900Y926941D01*
X635541Y925300D01*
X637106Y924397D01*
Y830502D01*
X592970Y786366D01*
X591941Y785940D01*
X590740Y784739D01*
X590090Y783169D01*
Y781471D01*
X590740Y779901D01*
X591941Y778700D01*
X593511Y778050D01*
X595209D01*
X596779Y778700D01*
X597980Y779901D01*
X598406Y780930D01*
X643668Y826192D01*
X643668Y826192D01*
X644501Y827439D01*
X644794Y828910D01*
Y924397D01*
X646360Y925300D01*
X648000Y926941D01*
X649160Y928950D01*
X649760Y931190D01*
Y933510D01*
X649160Y935751D01*
X648000Y937760D01*
X646360Y939400D01*
X644351Y940560D01*
X642110Y941160D01*
D02*
G37*
G36*
X521860Y942260D02*
X519540D01*
X517299Y941660D01*
X515290Y940500D01*
X513650Y938859D01*
X512490Y936851D01*
X511890Y934610D01*
Y932290D01*
X512490Y930050D01*
X513650Y928040D01*
X515290Y926400D01*
X516856Y925496D01*
Y840740D01*
X516856Y840740D01*
X517149Y839269D01*
X517982Y838022D01*
X575074Y780930D01*
X575500Y779901D01*
X576701Y778700D01*
X578271Y778050D01*
X579969D01*
X581539Y778700D01*
X582740Y779901D01*
X583390Y781471D01*
Y783169D01*
X582740Y784739D01*
X581539Y785940D01*
X580510Y786366D01*
X524544Y842332D01*
Y925496D01*
X526110Y926400D01*
X527750Y928040D01*
X528910Y930050D01*
X529510Y932290D01*
Y934610D01*
X528910Y936851D01*
X527750Y938859D01*
X526110Y940500D01*
X524100Y941660D01*
X521860Y942260D01*
D02*
G37*
G36*
X746145Y764795D02*
X737635D01*
Y756285D01*
X746145D01*
Y764795D01*
D02*
G37*
G36*
X736365D02*
X727855D01*
Y756285D01*
X736365D01*
Y764795D01*
D02*
G37*
G36*
Y755015D02*
X727855D01*
Y746505D01*
X736365D01*
Y755015D01*
D02*
G37*
G36*
X841860Y751760D02*
X833685D01*
Y743585D01*
X841860D01*
Y751760D01*
D02*
G37*
G36*
X832415D02*
X824240D01*
Y743585D01*
X832415D01*
Y751760D01*
D02*
G37*
G36*
X538480Y801914D02*
X508000D01*
X507579Y801830D01*
X507151D01*
X506754Y801666D01*
X506334Y801582D01*
X505977Y801344D01*
X505581Y801180D01*
X505278Y800877D01*
X504921Y800639D01*
X499841Y795558D01*
X498898Y794146D01*
X498566Y792480D01*
Y746760D01*
X498650Y746339D01*
Y745911D01*
X498814Y745515D01*
X498898Y745094D01*
X499136Y744737D01*
X499300Y744341D01*
X499603Y744038D01*
X499841Y743681D01*
X500198Y743443D01*
X500501Y743140D01*
X500897Y742976D01*
X501254Y742738D01*
X501674Y742654D01*
X502071Y742490D01*
X502500D01*
X502920Y742406D01*
X503340Y742490D01*
X503769D01*
X504165Y742654D01*
X504586Y742738D01*
X504943Y742976D01*
X505339Y743140D01*
X505642Y743443D01*
X505998Y743681D01*
X506237Y744038D01*
X506540Y744341D01*
X506704Y744737D01*
X506942Y745094D01*
X507026Y745515D01*
X507190Y745911D01*
Y746339D01*
X507274Y746760D01*
Y790677D01*
X509803Y793206D01*
X538480D01*
X538900Y793290D01*
X539329D01*
X539725Y793454D01*
X540146Y793538D01*
X540503Y793776D01*
X540899Y793940D01*
X541202Y794243D01*
X541558Y794482D01*
X541797Y794838D01*
X542100Y795141D01*
X542264Y795537D01*
X542502Y795894D01*
X542586Y796314D01*
X542750Y796711D01*
Y797140D01*
X542834Y797560D01*
X542750Y797980D01*
Y798409D01*
X542586Y798805D01*
X542502Y799226D01*
X542264Y799583D01*
X542100Y799979D01*
X541797Y800282D01*
X541558Y800639D01*
X541202Y800877D01*
X540899Y801180D01*
X540503Y801344D01*
X540146Y801582D01*
X539725Y801666D01*
X539329Y801830D01*
X538900D01*
X538480Y801914D01*
D02*
G37*
G36*
X909210Y751760D02*
X906890D01*
X904650Y751160D01*
X902641Y750000D01*
X901000Y748360D01*
X899840Y746350D01*
X899240Y744110D01*
Y741790D01*
X899840Y739549D01*
X901000Y737541D01*
X902641Y735900D01*
X904650Y734740D01*
X906890Y734140D01*
X909210D01*
X911451Y734740D01*
X913459Y735900D01*
X915100Y737541D01*
X916260Y739549D01*
X916860Y741790D01*
Y744110D01*
X916260Y746350D01*
X915100Y748360D01*
X913459Y750000D01*
X911451Y751160D01*
X909210Y751760D01*
D02*
G37*
G36*
X884210D02*
X881890D01*
X879649Y751160D01*
X877640Y750000D01*
X876000Y748360D01*
X874840Y746350D01*
X874240Y744110D01*
Y741790D01*
X874840Y739549D01*
X876000Y737541D01*
X877640Y735900D01*
X879649Y734740D01*
X881890Y734140D01*
X884210D01*
X886450Y734740D01*
X888459Y735900D01*
X890099Y737541D01*
X891259Y739549D01*
X891860Y741790D01*
Y744110D01*
X891259Y746350D01*
X890099Y748360D01*
X888459Y750000D01*
X886450Y751160D01*
X884210Y751760D01*
D02*
G37*
G36*
X841860Y742315D02*
X833685D01*
Y734140D01*
X841860D01*
Y742315D01*
D02*
G37*
G36*
X832415D02*
X824240D01*
Y734140D01*
X832415D01*
Y742315D01*
D02*
G37*
G36*
X492760Y725714D02*
X462280D01*
X460614Y725382D01*
X459202Y724438D01*
X436342Y701579D01*
X436103Y701222D01*
X435800Y700919D01*
X435636Y700523D01*
X435398Y700166D01*
X435314Y699745D01*
X435150Y699349D01*
Y698921D01*
X435066Y698500D01*
X435150Y698080D01*
Y697651D01*
X435314Y697254D01*
X435398Y696834D01*
X435636Y696477D01*
X435800Y696081D01*
X436103Y695778D01*
X436342Y695422D01*
X436698Y695183D01*
X437001Y694880D01*
X437397Y694716D01*
X437754Y694478D01*
X438175Y694394D01*
X438571Y694230D01*
X438999D01*
X439420Y694146D01*
X439841Y694230D01*
X440269D01*
X440666Y694394D01*
X441086Y694478D01*
X441443Y694716D01*
X441839Y694880D01*
X442142Y695183D01*
X442499Y695422D01*
X464083Y717006D01*
X492760D01*
X493181Y717090D01*
X493609D01*
X494006Y717254D01*
X494426Y717338D01*
X494783Y717576D01*
X495179Y717740D01*
X495482Y718043D01*
X495839Y718281D01*
X496077Y718638D01*
X496380Y718941D01*
X496544Y719337D01*
X496782Y719694D01*
X496866Y720115D01*
X497030Y720511D01*
Y720939D01*
X497114Y721360D01*
X497030Y721780D01*
Y722209D01*
X496866Y722606D01*
X496782Y723026D01*
X496544Y723383D01*
X496380Y723779D01*
X496077Y724082D01*
X495839Y724438D01*
X495482Y724677D01*
X495179Y724980D01*
X494783Y725144D01*
X494426Y725382D01*
X494006Y725466D01*
X493609Y725630D01*
X493181D01*
X492760Y725714D01*
D02*
G37*
G36*
X506309Y697690D02*
X504611D01*
X503582Y697264D01*
X490609D01*
X489138Y696971D01*
X487891Y696138D01*
X487891Y696138D01*
X484962Y693209D01*
X484129Y691962D01*
X483836Y690491D01*
X483836Y690491D01*
Y680058D01*
X483410Y679029D01*
Y677331D01*
X484060Y675761D01*
X485261Y674560D01*
X486831Y673910D01*
X488529D01*
X490099Y674560D01*
X491300Y675761D01*
X491950Y677331D01*
Y679029D01*
X491524Y680058D01*
Y688899D01*
X492201Y689576D01*
X503582D01*
X504611Y689150D01*
X506309D01*
X507879Y689800D01*
X509080Y691001D01*
X509730Y692571D01*
Y694269D01*
X509080Y695839D01*
X507879Y697040D01*
X506309Y697690D01*
D02*
G37*
G36*
X394860Y675160D02*
X394335D01*
Y666985D01*
X402510D01*
Y667510D01*
X401910Y669751D01*
X400750Y671760D01*
X399109Y673400D01*
X397100Y674560D01*
X394860Y675160D01*
D02*
G37*
G36*
X393065D02*
X392540D01*
X390299Y674560D01*
X388290Y673400D01*
X386650Y671760D01*
X385490Y669751D01*
X384890Y667510D01*
Y666985D01*
X393065D01*
Y675160D01*
D02*
G37*
G36*
X402510Y665715D02*
X394335D01*
Y657540D01*
X394860D01*
X397100Y658141D01*
X399109Y659301D01*
X400750Y660941D01*
X401910Y662950D01*
X402510Y665190D01*
Y665715D01*
D02*
G37*
G36*
X393065D02*
X384890D01*
Y665190D01*
X385490Y662950D01*
X386650Y660941D01*
X388290Y659301D01*
X390299Y658141D01*
X392540Y657540D01*
X393065D01*
Y665715D01*
D02*
G37*
G36*
X783445Y663195D02*
X774935D01*
Y654685D01*
X783445D01*
Y663195D01*
D02*
G37*
G36*
X773665D02*
X765155D01*
Y654685D01*
X773665D01*
Y663195D01*
D02*
G37*
G36*
X883810Y656510D02*
X883285D01*
Y648335D01*
X891460D01*
Y648860D01*
X890860Y651100D01*
X889700Y653110D01*
X888059Y654750D01*
X886050Y655910D01*
X883810Y656510D01*
D02*
G37*
G36*
X882015D02*
X881490D01*
X879249Y655910D01*
X877241Y654750D01*
X875600Y653110D01*
X874440Y651100D01*
X873840Y648860D01*
Y648335D01*
X882015D01*
Y656510D01*
D02*
G37*
G36*
X549489Y725630D02*
X547791D01*
X546221Y724980D01*
X545020Y723779D01*
X544594Y722750D01*
X467038Y645194D01*
X401654D01*
X400750Y646759D01*
X399109Y648400D01*
X397100Y649560D01*
X394860Y650160D01*
X392540D01*
X390299Y649560D01*
X388290Y648400D01*
X386650Y646759D01*
X385490Y644751D01*
X384890Y642510D01*
Y640190D01*
X385490Y637949D01*
X386650Y635941D01*
X388290Y634300D01*
X390299Y633140D01*
X392540Y632540D01*
X394860D01*
X397100Y633140D01*
X399109Y634300D01*
X400750Y635941D01*
X401654Y637506D01*
X468630D01*
X468630Y637506D01*
X470101Y637799D01*
X471348Y638632D01*
X550030Y717314D01*
X551059Y717740D01*
X552260Y718941D01*
X552910Y720511D01*
Y722209D01*
X552260Y723779D01*
X551059Y724980D01*
X549489Y725630D01*
D02*
G37*
G36*
X783445Y653415D02*
X774935D01*
Y644905D01*
X783445D01*
Y653415D01*
D02*
G37*
G36*
X773665D02*
X765155D01*
Y644905D01*
X773665D01*
Y653415D01*
D02*
G37*
G36*
X750504Y663195D02*
X748096D01*
X745770Y662572D01*
X743685Y661368D01*
X741982Y659665D01*
X740778Y657580D01*
X740155Y655254D01*
Y652846D01*
X740778Y650520D01*
X741982Y648435D01*
X743685Y646732D01*
X745770Y645528D01*
X748096Y644905D01*
X750504D01*
X752830Y645528D01*
X754915Y646732D01*
X756618Y648435D01*
X757822Y650520D01*
X758445Y652846D01*
Y655254D01*
X757822Y657580D01*
X756618Y659665D01*
X754915Y661368D01*
X752830Y662572D01*
X750504Y663195D01*
D02*
G37*
G36*
X891460Y647065D02*
X883285D01*
Y638890D01*
X883810D01*
X886050Y639490D01*
X888059Y640650D01*
X889700Y642290D01*
X890860Y644299D01*
X891460Y646540D01*
Y647065D01*
D02*
G37*
G36*
X882015D02*
X873840D01*
Y646540D01*
X874440Y644299D01*
X875600Y642290D01*
X877241Y640650D01*
X879249Y639490D01*
X881490Y638890D01*
X882015D01*
Y647065D01*
D02*
G37*
G36*
X858810Y656510D02*
X856490D01*
X854249Y655910D01*
X852240Y654750D01*
X850600Y653110D01*
X849440Y651100D01*
X848840Y648860D01*
Y646540D01*
X849440Y644299D01*
X850600Y642290D01*
X852240Y640650D01*
X854249Y639490D01*
X856490Y638890D01*
X858810D01*
X861050Y639490D01*
X863059Y640650D01*
X864699Y642290D01*
X865859Y644299D01*
X866460Y646540D01*
Y648860D01*
X865859Y651100D01*
X864699Y653110D01*
X863059Y654750D01*
X861050Y655910D01*
X858810Y656510D01*
D02*
G37*
G36*
X519009Y664670D02*
X517311D01*
X515741Y664020D01*
X514540Y662819D01*
X514114Y661790D01*
X496450Y644126D01*
X495421Y643700D01*
X494220Y642499D01*
X493570Y640929D01*
Y639231D01*
X494220Y637661D01*
X495421Y636460D01*
X496991Y635810D01*
X498689D01*
X500259Y636460D01*
X501460Y637661D01*
X501886Y638690D01*
X519550Y656354D01*
X520579Y656780D01*
X521780Y657981D01*
X522430Y659551D01*
Y661249D01*
X521780Y662819D01*
X520579Y664020D01*
X519009Y664670D01*
D02*
G37*
G36*
X554630Y715531D02*
X552931D01*
X551362Y714881D01*
X550161Y713679D01*
X549735Y712651D01*
X457278Y620194D01*
X401654D01*
X400750Y621759D01*
X399109Y623400D01*
X397100Y624559D01*
X394860Y625160D01*
X392540D01*
X390299Y624559D01*
X388290Y623400D01*
X386650Y621759D01*
X385490Y619750D01*
X384890Y617510D01*
Y615190D01*
X385490Y612949D01*
X386650Y610940D01*
X388290Y609300D01*
X390299Y608140D01*
X392540Y607540D01*
X394860D01*
X397100Y608140D01*
X399109Y609300D01*
X400750Y610940D01*
X401654Y612506D01*
X458870D01*
X458870Y612506D01*
X460341Y612799D01*
X461588Y613632D01*
X555171Y707215D01*
X556199Y707641D01*
X557401Y708842D01*
X558051Y710411D01*
Y712110D01*
X557401Y713679D01*
X556199Y714881D01*
X554630Y715531D01*
D02*
G37*
G36*
X691729Y655940D02*
X690031D01*
X688461Y655290D01*
X687260Y654089D01*
X686610Y652519D01*
Y650821D01*
X686845Y650254D01*
Y646561D01*
X659010Y618726D01*
X657981Y618300D01*
X656780Y617099D01*
X656130Y615529D01*
Y613831D01*
X656780Y612261D01*
X657981Y611060D01*
X659551Y610410D01*
X661249D01*
X662819Y611060D01*
X664020Y612261D01*
X664446Y613290D01*
X693407Y642251D01*
X693407Y642251D01*
X694240Y643498D01*
X694532Y644969D01*
Y649330D01*
X695150Y650821D01*
Y652519D01*
X694500Y654089D01*
X693299Y655290D01*
X691729Y655940D01*
D02*
G37*
G36*
X402510Y600160D02*
X384890D01*
Y582540D01*
X402510D01*
Y600160D01*
D02*
G37*
G36*
X699660Y580310D02*
X699135D01*
Y572135D01*
X707310D01*
Y572660D01*
X706710Y574901D01*
X705550Y576909D01*
X703910Y578550D01*
X701900Y579710D01*
X699660Y580310D01*
D02*
G37*
G36*
X697865D02*
X697340D01*
X695099Y579710D01*
X693091Y578550D01*
X691450Y576909D01*
X690290Y574901D01*
X689690Y572660D01*
Y572135D01*
X697865D01*
Y580310D01*
D02*
G37*
G36*
X610877Y577920D02*
X608323D01*
X605963Y576943D01*
X604157Y575137D01*
X603180Y572777D01*
Y570223D01*
X604157Y567863D01*
X605963Y566057D01*
X608323Y565080D01*
X610877D01*
X613237Y566057D01*
X615043Y567863D01*
X616020Y570223D01*
Y572777D01*
X615043Y575137D01*
X613237Y576943D01*
X610877Y577920D01*
D02*
G37*
G36*
X562077D02*
X559523D01*
X557163Y576943D01*
X555357Y575137D01*
X554380Y572777D01*
Y570223D01*
X555357Y567863D01*
X557163Y566057D01*
X559523Y565080D01*
X562077D01*
X564437Y566057D01*
X566243Y567863D01*
X567220Y570223D01*
Y572777D01*
X566243Y575137D01*
X564437Y576943D01*
X562077Y577920D01*
D02*
G37*
G36*
X832310Y580310D02*
X814690D01*
Y562690D01*
X832310D01*
Y580310D01*
D02*
G37*
G36*
X799660D02*
X797340D01*
X795099Y579710D01*
X793090Y578550D01*
X791450Y576909D01*
X790290Y574901D01*
X789690Y572660D01*
Y570340D01*
X790290Y568100D01*
X791450Y566091D01*
X793090Y564450D01*
X795099Y563290D01*
X797340Y562690D01*
X799660D01*
X801900Y563290D01*
X803909Y564450D01*
X805549Y566091D01*
X806709Y568100D01*
X807310Y570340D01*
Y572660D01*
X806709Y574901D01*
X805549Y576909D01*
X803909Y578550D01*
X801900Y579710D01*
X799660Y580310D01*
D02*
G37*
G36*
X717129Y700230D02*
X715431D01*
X713861Y699580D01*
X712660Y698379D01*
X712010Y696809D01*
Y695111D01*
X712436Y694082D01*
Y682312D01*
X708482Y678358D01*
X707649Y677111D01*
X707356Y675640D01*
X707356Y675640D01*
Y633800D01*
X707356Y633800D01*
X707649Y632329D01*
X708482Y631082D01*
X765158Y574406D01*
X764690Y572660D01*
Y570340D01*
X765291Y568100D01*
X766450Y566091D01*
X768091Y564450D01*
X770100Y563290D01*
X772340Y562690D01*
X774660D01*
X776901Y563290D01*
X778910Y564450D01*
X780550Y566091D01*
X781710Y568100D01*
X782310Y570340D01*
Y572660D01*
X781710Y574901D01*
X780550Y576909D01*
X778910Y578550D01*
X776901Y579710D01*
X774660Y580310D01*
X772340D01*
X770594Y579842D01*
X715044Y635392D01*
Y674048D01*
X718998Y678002D01*
X718998Y678002D01*
X719831Y679249D01*
X720124Y680720D01*
X720124Y680720D01*
Y694082D01*
X720550Y695111D01*
Y696809D01*
X719900Y698379D01*
X718699Y699580D01*
X717129Y700230D01*
D02*
G37*
G36*
X749660Y580310D02*
X747340D01*
X745099Y579710D01*
X743090Y578550D01*
X741450Y576909D01*
X740290Y574901D01*
X739690Y572660D01*
Y570340D01*
X740290Y568100D01*
X741450Y566091D01*
X743090Y564450D01*
X745099Y563290D01*
X747340Y562690D01*
X749660D01*
X751900Y563290D01*
X753909Y564450D01*
X755550Y566091D01*
X756710Y568100D01*
X757310Y570340D01*
Y572660D01*
X756710Y574901D01*
X755550Y576909D01*
X753909Y578550D01*
X751900Y579710D01*
X749660Y580310D01*
D02*
G37*
G36*
X724660D02*
X722340D01*
X720100Y579710D01*
X718091Y578550D01*
X716451Y576909D01*
X715291Y574901D01*
X714690Y572660D01*
Y570340D01*
X715291Y568100D01*
X716451Y566091D01*
X718091Y564450D01*
X720100Y563290D01*
X722340Y562690D01*
X724660D01*
X726901Y563290D01*
X728910Y564450D01*
X730550Y566091D01*
X731710Y568100D01*
X732310Y570340D01*
Y572660D01*
X731710Y574901D01*
X730550Y576909D01*
X728910Y578550D01*
X726901Y579710D01*
X724660Y580310D01*
D02*
G37*
G36*
X707310Y570865D02*
X699135D01*
Y562690D01*
X699660D01*
X701900Y563290D01*
X703910Y564450D01*
X705550Y566091D01*
X706710Y568100D01*
X707310Y570340D01*
Y570865D01*
D02*
G37*
G36*
X697865D02*
X689690D01*
Y570340D01*
X690290Y568100D01*
X691450Y566091D01*
X693091Y564450D01*
X695099Y563290D01*
X697340Y562690D01*
X697865D01*
Y570865D01*
D02*
G37*
G36*
X890724Y589000D02*
X887276D01*
X883895Y588327D01*
X880711Y587008D01*
X877844Y585093D01*
X875407Y582656D01*
X873492Y579789D01*
X872172Y576605D01*
X871500Y573224D01*
Y569776D01*
X872172Y566395D01*
X873492Y563211D01*
X875407Y560344D01*
X877844Y557907D01*
X880711Y555992D01*
X883895Y554673D01*
X887276Y554000D01*
X890724D01*
X894105Y554673D01*
X897289Y555992D01*
X900156Y557907D01*
X902593Y560344D01*
X904508Y563211D01*
X905827Y566395D01*
X906500Y569776D01*
Y573224D01*
X905827Y576605D01*
X904508Y579789D01*
X902593Y582656D01*
X900156Y585093D01*
X897289Y587008D01*
X894105Y588327D01*
X890724Y589000D01*
D02*
G37*
G36*
X319224D02*
X315776D01*
X312395Y588327D01*
X309211Y587008D01*
X306344Y585093D01*
X303907Y582656D01*
X301992Y579789D01*
X300672Y576605D01*
X300000Y573224D01*
Y569776D01*
X300672Y566395D01*
X301992Y563211D01*
X303907Y560344D01*
X306344Y557907D01*
X309211Y555992D01*
X312395Y554673D01*
X315776Y554000D01*
X319224D01*
X322605Y554673D01*
X325789Y555992D01*
X328656Y557907D01*
X331093Y560344D01*
X333008Y563211D01*
X334328Y566395D01*
X335000Y569776D01*
Y573224D01*
X334328Y576605D01*
X333008Y579789D01*
X331093Y582656D01*
X328656Y585093D01*
X325789Y587008D01*
X322605Y588327D01*
X319224Y589000D01*
D02*
G37*
%LPD*%
G36*
X636730Y709976D02*
X635876Y709123D01*
X635226Y707553D01*
Y705854D01*
X635652Y704826D01*
Y686655D01*
X635652Y686655D01*
X635810Y685862D01*
Y684951D01*
X636236Y683922D01*
Y672438D01*
X635810Y671409D01*
Y669711D01*
X636460Y668141D01*
X636548Y668054D01*
X636021Y666784D01*
X628972D01*
X588246Y707510D01*
X587820Y708539D01*
X586619Y709740D01*
X586048Y709976D01*
X586301Y711246D01*
X636238D01*
X636730Y709976D01*
D02*
G37*
D11*
X508000Y566420D02*
X513080Y571500D01*
X502920Y591820D02*
X513080Y581660D01*
Y571500D02*
Y581660D01*
X848360Y789940D02*
Y822560D01*
Y789940D02*
X858050Y780250D01*
X848360Y822560D02*
X869950Y844150D01*
X858050Y742950D02*
Y780250D01*
X907650Y647700D02*
Y664610D01*
X858050Y714210D02*
Y742950D01*
Y714210D02*
X907650Y664610D01*
X432670Y666350D02*
X449580Y683260D01*
X393700Y666350D02*
X432670D01*
X439420Y698500D02*
X462280Y721360D01*
X492760D01*
X693180Y716040D02*
Y751600D01*
X685800Y708660D02*
X693180Y716040D01*
X508000Y708660D02*
Y726440D01*
X502920Y843280D02*
Y853440D01*
X482600Y873760D02*
X502920Y853440D01*
Y746760D02*
Y792480D01*
X508000Y797560D01*
X538480D01*
D41*
X640080Y670560D02*
Y685800D01*
X584200Y706120D02*
X627380Y662940D01*
X657860D02*
X701040Y706120D01*
X627380Y662940D02*
X657860D01*
X431800Y706120D02*
X459740Y734060D01*
X566149D01*
X568689Y731520D01*
X569231D01*
X487680Y678180D02*
Y690491D01*
X490609Y693420D01*
X505460D01*
X639496Y686655D02*
Y706704D01*
X640080Y685800D02*
Y686071D01*
X639496Y686655D02*
X640080Y686071D01*
X660400Y614680D02*
X690689Y644969D01*
Y651479D01*
X690880Y651670D01*
X458870Y616350D02*
X553781Y711261D01*
X468630Y641350D02*
X548640Y721360D01*
X497840Y640080D02*
X518160Y660400D01*
X716280Y680720D02*
Y695960D01*
X711200Y675640D02*
X716280Y680720D01*
X645160Y726440D02*
Y731520D01*
X640080Y721360D02*
X645160Y726440D01*
X579391Y721360D02*
X640080D01*
X569231Y731520D02*
X579391Y721360D01*
X579120Y731520D02*
X645160Y797560D01*
X643537Y715090D02*
X715847Y787400D01*
X726440D01*
X574040Y706120D02*
X583010Y715090D01*
X643537D01*
X646430Y640080D02*
X762000Y755650D01*
X538480Y640080D02*
X646430D01*
X711200Y633800D02*
Y675640D01*
Y633800D02*
X773500Y571500D01*
X746760Y807720D02*
Y883920D01*
X726440Y787400D02*
X746760Y807720D01*
X711200Y797560D02*
X731520Y817880D01*
X645160Y797560D02*
X711200D01*
X563880Y655320D02*
X629920D01*
X558800Y650240D02*
X563880Y655320D01*
X528511Y650049D02*
X538480Y640080D01*
X523240Y644889D02*
X528320Y649969D01*
X523240Y624840D02*
Y644889D01*
X393700Y616350D02*
X458870D01*
X393700Y641350D02*
X468630D01*
X345440Y706120D02*
X431800D01*
X731520Y910120D02*
X754850Y933450D01*
X731520Y817880D02*
Y910120D01*
X640950Y828910D02*
Y932350D01*
X594360Y782320D02*
X640950Y828910D01*
X520700Y840740D02*
Y933450D01*
Y840740D02*
X579120Y782320D01*
D42*
X889000Y939800D02*
D03*
Y571500D02*
D03*
X317500D02*
D03*
Y939800D02*
D03*
D43*
X393700Y591350D02*
D03*
X869950Y819150D02*
D03*
D44*
X393700Y616350D02*
D03*
Y641350D02*
D03*
Y666350D02*
D03*
X520700Y933450D02*
D03*
X495700D02*
D03*
X615950Y932350D02*
D03*
X640950D02*
D03*
X754850Y933450D02*
D03*
X729850D02*
D03*
X704850D02*
D03*
X869950Y844150D02*
D03*
Y869150D02*
D03*
X858050Y742950D02*
D03*
X883050D02*
D03*
X908050D02*
D03*
X882650Y647700D02*
D03*
X857650D02*
D03*
X698500Y571500D02*
D03*
X723500D02*
D03*
X798500D02*
D03*
X748500D02*
D03*
X773500D02*
D03*
D45*
X381000Y838200D02*
D03*
D46*
Y889000D02*
D03*
D47*
X470700Y933450D02*
D03*
X590950Y932350D02*
D03*
X779850Y933450D02*
D03*
X833050Y742950D02*
D03*
X907650Y647700D02*
D03*
X823500Y571500D02*
D03*
D48*
X762000Y755650D02*
D03*
X793550Y830750D02*
D03*
X698500Y831850D02*
D03*
X749300Y654050D02*
D03*
D49*
X737000Y755650D02*
D03*
X768550Y830750D02*
D03*
X673500Y831850D02*
D03*
X774300Y654050D02*
D03*
D50*
X609600Y571500D02*
D03*
X560800D02*
D03*
D51*
X508000Y566420D02*
D03*
X502920Y591820D02*
D03*
X640080Y670560D02*
D03*
X449580Y683260D02*
D03*
X439420Y698500D02*
D03*
X693180Y751600D02*
D03*
X685800Y708660D02*
D03*
X701040Y706120D02*
D03*
X508000Y726440D02*
D03*
Y708660D02*
D03*
X505460Y693420D02*
D03*
X487680Y678180D02*
D03*
X482600Y873760D02*
D03*
X502920Y843280D02*
D03*
X639496Y706704D02*
D03*
X640080Y685800D02*
D03*
X660400Y614680D02*
D03*
X690880Y651670D02*
D03*
X502920Y746760D02*
D03*
X538480Y797560D02*
D03*
X508000D02*
D03*
X553781Y711261D02*
D03*
X548640Y721360D02*
D03*
X492760D02*
D03*
X518160Y660400D02*
D03*
X497840Y640080D02*
D03*
X716280Y695960D02*
D03*
X645160Y731520D02*
D03*
X579120D02*
D03*
X584200Y706120D02*
D03*
X746760Y883920D02*
D03*
X574040Y706120D02*
D03*
X558800Y650240D02*
D03*
X629920Y655320D02*
D03*
X523240Y624840D02*
D03*
X528320Y650240D02*
D03*
X345440Y706120D02*
D03*
X594360Y782320D02*
D03*
X579120D02*
D03*
X568960Y731520D02*
D03*
M02*
