G04*
G04 #@! TF.GenerationSoftware,Altium Limited,Altium Designer,23.4.1 (23)*
G04*
G04 Layer_Color=65535*
%FSLAX44Y44*%
%MOMM*%
G71*
G04*
G04 #@! TF.SameCoordinates,574EF0A3-D4D7-4E79-882F-14C39876F300*
G04*
G04*
G04 #@! TF.FilePolarity,Positive*
G04*
G01*
G75*
%ADD10C,0.2500*%
%ADD11C,0.6000*%
%ADD12C,0.2000*%
%ADD13C,0.1000*%
%ADD14C,0.1270*%
%ADD15C,0.3810*%
%ADD16C,0.0500*%
%ADD17C,0.2540*%
D10*
X528300Y750300D02*
G03*
X528300Y750300I-1250J0D01*
G01*
D11*
X554050Y732300D02*
G03*
X554050Y732300I-3000J0D01*
G01*
D12*
X394700Y559350D02*
G03*
X394700Y559350I-1000J0D01*
G01*
X433000Y889000D02*
G03*
X433000Y889000I-1000J0D01*
G01*
X439200Y933450D02*
G03*
X439200Y933450I-1000J0D01*
G01*
X559450Y932350D02*
G03*
X559450Y932350I-1000J0D01*
G01*
X812850Y933450D02*
G03*
X812850Y933450I-1000J0D01*
G01*
X870950Y786650D02*
G03*
X870950Y786650I-1000J0D01*
G01*
X802050Y742950D02*
G03*
X802050Y742950I-1000J0D01*
G01*
X941150Y647700D02*
G03*
X941150Y647700I-1000J0D01*
G01*
X706100Y755650D02*
G03*
X706100Y755650I-1000J0D01*
G01*
X737650Y830750D02*
G03*
X737650Y830750I-1000J0D01*
G01*
X642600Y831850D02*
G03*
X642600Y831850I-1000J0D01*
G01*
X857000Y571500D02*
G03*
X857000Y571500I-1000J0D01*
G01*
X807200Y654050D02*
G03*
X807200Y654050I-1000J0D01*
G01*
X541050Y685300D02*
Y742300D01*
X598050Y685300D02*
Y742300D01*
X541050D02*
X598050D01*
X541050Y685300D02*
X598050D01*
X331950Y725650D02*
Y785650D01*
Y725650D02*
X391950D01*
Y785650D01*
X331950D02*
X391950D01*
X615950Y615300D02*
Y629300D01*
X562850Y615300D02*
Y629300D01*
X535700Y818500D02*
Y832500D01*
X467600Y818500D02*
Y832500D01*
X463550Y755000D02*
Y769000D01*
X460360Y685800D02*
X474360D01*
X465723Y606950D02*
X474692D01*
X465723Y624950D02*
X474692D01*
X465107Y556150D02*
X474077D01*
X465107Y574150D02*
X474077D01*
X659750Y685800D02*
X673750D01*
X657750Y730350D02*
Y742850D01*
X675750Y730350D02*
Y742850D01*
X591900Y833500D02*
X601900D01*
X591900Y817500D02*
X601900D01*
D13*
X300950Y778150D02*
G03*
X301950Y778150I500J0D01*
G01*
D02*
G03*
X300950Y778150I-500J0D01*
G01*
D14*
X541174Y594800D02*
G03*
X528450Y581624I226J-12950D01*
G01*
X641950D02*
G03*
X629226Y594800I-12950J226D01*
G01*
Y548200D02*
G03*
X641950Y561376I-226J12950D01*
G01*
X528450D02*
G03*
X541174Y548200I12950J-226D01*
G01*
X359700Y690850D02*
X417200D01*
Y566850D02*
Y690850D01*
X359700Y566850D02*
X417200D01*
X359700D02*
Y690850D01*
X340000Y812800D02*
Y914400D01*
X422000Y812800D02*
Y914400D01*
X340000Y812800D02*
X422000D01*
X340000Y914400D02*
X422000D01*
X446200Y899450D02*
X545200D01*
X446200D02*
Y956950D01*
X545200D01*
Y899450D02*
Y956950D01*
X665450Y898350D02*
Y955850D01*
X566450D02*
X665450D01*
X566450Y898350D02*
Y955850D01*
Y898350D02*
X665450D01*
X680350Y899450D02*
Y956950D01*
X804350D01*
Y899450D02*
Y956950D01*
X680350Y899450D02*
X804350D01*
X846450Y893650D02*
X903950D01*
X846450Y794650D02*
Y893650D01*
Y794650D02*
X903950D01*
Y893650D01*
X932550Y719450D02*
Y776950D01*
X808550Y719450D02*
X932550D01*
X808550D02*
Y776950D01*
X932550D01*
X833150Y624200D02*
Y681700D01*
Y624200D02*
X932150D01*
Y681700D01*
X833150D02*
X932150D01*
X712500Y721650D02*
Y779150D01*
X786500D01*
Y721650D02*
Y779150D01*
X712500Y721650D02*
X786500D01*
X744050Y796750D02*
Y854250D01*
X818050D01*
Y796750D02*
Y854250D01*
X744050Y796750D02*
X818050D01*
X649000Y797850D02*
Y855350D01*
X723000D01*
Y797850D02*
Y855350D01*
X649000Y797850D02*
X723000D01*
X528450Y561400D02*
Y581600D01*
X541150Y594800D02*
X629250D01*
X641950Y561400D02*
Y581600D01*
X541150Y548200D02*
X629250D01*
X674000Y548000D02*
Y605500D01*
Y548000D02*
X848000D01*
Y605500D01*
X674000D02*
X848000D01*
X724800Y688050D02*
X798800D01*
X724800Y630550D02*
Y688050D01*
Y630550D02*
X798800D01*
Y688050D01*
D15*
X381000Y925710D02*
Y934212D01*
X376816Y929640D02*
X385318D01*
D16*
X593200Y610800D02*
X638700D01*
X593200D02*
Y633800D01*
X638700D01*
Y610800D02*
Y633800D01*
X540100Y610800D02*
X585600D01*
X540100D02*
Y633800D01*
X585600D01*
Y610800D02*
Y633800D01*
X512950Y814000D02*
X558450D01*
X512950D02*
Y837000D01*
X558450D01*
Y814000D02*
Y837000D01*
X444850Y814000D02*
X490350D01*
X444850D02*
Y837000D01*
X490350D01*
Y814000D02*
Y837000D01*
X440800Y750500D02*
X486300D01*
X440800D02*
Y773500D01*
X486300D01*
Y750500D02*
Y773500D01*
X456760Y706400D02*
X477960D01*
X456760Y665200D02*
Y706400D01*
Y665200D02*
X477960D01*
Y706400D01*
X656150D02*
X677350D01*
X656150Y665200D02*
Y706400D01*
Y665200D02*
X677350D01*
Y706400D01*
D17*
X652781Y774698D02*
X650242Y777237D01*
X645163D01*
X642624Y774698D01*
Y764542D01*
X645163Y762002D01*
X650242D01*
X652781Y764542D01*
X657859Y774698D02*
X660398Y777237D01*
X665477D01*
X668016Y774698D01*
Y772159D01*
X665477Y769620D01*
X662937D01*
X665477D01*
X668016Y767081D01*
Y764542D01*
X665477Y762002D01*
X660398D01*
X657859Y764542D01*
X505461Y890267D02*
X500382D01*
X502922D01*
Y877572D01*
X500382Y875033D01*
X497843D01*
X495304Y877572D01*
X510539Y890267D02*
X520696D01*
Y887728D01*
X510539Y877572D01*
Y875033D01*
X504193Y585467D02*
Y582928D01*
X509272Y577850D01*
X514350Y582928D01*
Y585467D01*
X509272Y577850D02*
Y570233D01*
X519428D02*
X524507D01*
X521968D01*
Y585467D01*
X519428Y582928D01*
X609604Y655318D02*
X619761Y640082D01*
Y655318D02*
X609604Y640082D01*
X634996Y655318D02*
X629917Y652778D01*
X624839Y647700D01*
Y642622D01*
X627378Y640082D01*
X632457D01*
X634996Y642622D01*
Y645161D01*
X632457Y647700D01*
X624839D01*
X552454Y655318D02*
X562611Y640082D01*
Y655318D02*
X552454Y640082D01*
X577846Y655318D02*
X567689D01*
Y647700D01*
X572767Y650239D01*
X575307D01*
X577846Y647700D01*
Y642622D01*
X575307Y640082D01*
X570228D01*
X567689Y642622D01*
X450854Y795017D02*
X461011Y779782D01*
Y795017D02*
X450854Y779782D01*
X473707D02*
Y795017D01*
X466089Y787400D01*
X476246D01*
X457204Y858518D02*
X467361Y843282D01*
Y858518D02*
X457204Y843282D01*
X472439Y855978D02*
X474978Y858518D01*
X480057D01*
X482596Y855978D01*
Y853439D01*
X480057Y850900D01*
X477518D01*
X480057D01*
X482596Y848361D01*
Y845822D01*
X480057Y843282D01*
X474978D01*
X472439Y845822D01*
X520704Y858518D02*
X530861Y843282D01*
Y858518D02*
X520704Y843282D01*
X546096D02*
X535939D01*
X546096Y853439D01*
Y855978D01*
X543557Y858518D01*
X538478D01*
X535939Y855978D01*
X307343Y820417D02*
X317500Y805182D01*
Y820417D02*
X307343Y805182D01*
X322578D02*
X327657D01*
X325118D01*
Y820417D01*
X322578Y817878D01*
X660404Y880107D02*
Y867411D01*
X662943Y864872D01*
X668022D01*
X670561Y867411D01*
Y880107D01*
X675639Y859793D02*
Y875028D01*
X683257D01*
X685796Y872489D01*
Y867411D01*
X683257Y864872D01*
X675639D01*
X514858Y793999D02*
Y781303D01*
X517397Y778764D01*
X522476D01*
X525015Y781303D01*
Y793999D01*
X530093Y778764D02*
X535171D01*
X532632D01*
Y793999D01*
X530093Y791460D01*
X572770Y847344D02*
Y862579D01*
X580387D01*
X582927Y860040D01*
Y854961D01*
X580387Y852422D01*
X572770D01*
X577848D02*
X582927Y847344D01*
X588005D02*
X593083D01*
X590544D01*
Y862579D01*
X588005Y860040D01*
X331468Y842021D02*
X316232D01*
Y849639D01*
X318772Y852178D01*
X323850D01*
X326389Y849639D01*
Y842021D01*
X331468Y859795D02*
Y864874D01*
X328928Y867413D01*
X323850D01*
X321311Y864874D01*
Y859795D01*
X323850Y857256D01*
X328928D01*
X331468Y859795D01*
X321311Y872491D02*
X328928D01*
X331468Y875030D01*
X328928Y877570D01*
X331468Y880109D01*
X328928Y882648D01*
X321311D01*
X331468Y895344D02*
Y890266D01*
X328928Y887726D01*
X323850D01*
X321311Y890266D01*
Y895344D01*
X323850Y897883D01*
X326389D01*
Y887726D01*
X321311Y902961D02*
X331468D01*
X326389D01*
X323850Y905501D01*
X321311Y908040D01*
Y910579D01*
X694691Y775967D02*
X689613D01*
X687074Y773428D01*
Y763272D01*
X689613Y760732D01*
X694691D01*
X697230Y763272D01*
Y773428D01*
X694691Y775967D01*
X702309Y760732D02*
Y775967D01*
Y765811D02*
X709926Y770889D01*
X702309Y765811D02*
X709926Y760732D01*
X689611Y623568D02*
X684532D01*
X687072D01*
Y610872D01*
X684532Y608332D01*
X681993D01*
X679454Y610872D01*
X694689Y621028D02*
X697228Y623568D01*
X702307D01*
X704846Y621028D01*
Y618489D01*
X702307Y615950D01*
X704846Y613411D01*
Y610872D01*
X702307Y608332D01*
X697228D01*
X694689Y610872D01*
Y613411D01*
X697228Y615950D01*
X694689Y618489D01*
Y621028D01*
X697228Y615950D02*
X702307D01*
X613411Y890267D02*
X608332D01*
X610872D01*
Y877572D01*
X608332Y875033D01*
X605793D01*
X603254Y877572D01*
X628646Y890267D02*
X623568Y887728D01*
X618489Y882650D01*
Y877572D01*
X621028Y875033D01*
X626107D01*
X628646Y877572D01*
Y880111D01*
X626107Y882650D01*
X618489D01*
X873761Y712467D02*
X868682D01*
X871222D01*
Y699772D01*
X868682Y697233D01*
X866143D01*
X863604Y699772D01*
X888996Y697233D02*
X878839D01*
X888996Y707389D01*
Y709928D01*
X886457Y712467D01*
X881378D01*
X878839Y709928D01*
X715011Y890267D02*
X709932D01*
X712472D01*
Y877572D01*
X709932Y875033D01*
X707393D01*
X704854Y877572D01*
X730246Y890267D02*
X720089D01*
Y882650D01*
X725167Y885189D01*
X727707D01*
X730246Y882650D01*
Y877572D01*
X727707Y875033D01*
X722628D01*
X720089Y877572D01*
X829311Y883917D02*
X824232D01*
X826772D01*
Y871222D01*
X824232Y868682D01*
X821693D01*
X819154Y871222D01*
X842007Y868682D02*
Y883917D01*
X834389Y876300D01*
X844546D01*
X334011Y699768D02*
X328932D01*
X331472D01*
Y687072D01*
X328932Y684532D01*
X326393D01*
X323854Y687072D01*
X339089Y697228D02*
X341628Y699768D01*
X346707D01*
X349246Y697228D01*
Y694689D01*
X346707Y692150D01*
X344168D01*
X346707D01*
X349246Y689611D01*
Y687072D01*
X346707Y684532D01*
X341628D01*
X339089Y687072D01*
X869950Y617217D02*
X864872D01*
X867411D01*
Y604522D01*
X864872Y601982D01*
X862333D01*
X859793Y604522D01*
X875028Y601982D02*
X880107D01*
X877568D01*
Y617217D01*
X875028Y614678D01*
X746769Y877568D02*
Y862333D01*
X754387D01*
X756926Y864872D01*
Y875028D01*
X754387Y877568D01*
X746769D01*
X764543Y862333D02*
X769622D01*
X772161Y864872D01*
Y869950D01*
X769622Y872489D01*
X764543D01*
X762004Y869950D01*
Y864872D01*
X764543Y862333D01*
X777239Y872489D02*
Y864872D01*
X779778Y862333D01*
X782318Y864872D01*
X784857Y862333D01*
X787396Y864872D01*
Y872489D01*
X792474Y862333D02*
Y872489D01*
X800092D01*
X802631Y869950D01*
Y862333D01*
X734819Y711196D02*
X732280Y713735D01*
X727201D01*
X724662Y711196D01*
Y701039D01*
X727201Y698500D01*
X732280D01*
X734819Y701039D01*
X742436Y708657D02*
X747515D01*
X750054Y706117D01*
Y698500D01*
X742436D01*
X739897Y701039D01*
X742436Y703578D01*
X750054D01*
X755132Y698500D02*
Y708657D01*
X762750D01*
X765289Y706117D01*
Y698500D01*
X780524Y708657D02*
X772906D01*
X770367Y706117D01*
Y701039D01*
X772906Y698500D01*
X780524D01*
X793220D02*
X788141D01*
X785602Y701039D01*
Y706117D01*
X788141Y708657D01*
X793220D01*
X795759Y706117D01*
Y703578D01*
X785602D01*
X800837Y698500D02*
X805916D01*
X803376D01*
Y713735D01*
X800837D01*
X467361Y595628D02*
X464822Y598167D01*
X459743D01*
X457204Y595628D01*
Y585472D01*
X459743Y582933D01*
X464822D01*
X467361Y585472D01*
X482596Y598167D02*
X472439D01*
Y590550D01*
X477518Y593089D01*
X480057D01*
X482596Y590550D01*
Y585472D01*
X480057Y582933D01*
X474978D01*
X472439Y585472D01*
X467361Y646428D02*
X464822Y648968D01*
X459743D01*
X457204Y646428D01*
Y636272D01*
X459743Y633732D01*
X464822D01*
X467361Y636272D01*
X480057Y633732D02*
Y648968D01*
X472439Y641350D01*
X482596D01*
X664211Y659128D02*
X661672Y661667D01*
X656593D01*
X654054Y659128D01*
Y648972D01*
X656593Y646432D01*
X661672D01*
X664211Y648972D01*
X679446Y646432D02*
X669289D01*
X679446Y656589D01*
Y659128D01*
X676907Y661667D01*
X671828D01*
X669289Y659128D01*
X467360Y722628D02*
X464821Y725167D01*
X459743D01*
X457203Y722628D01*
Y712472D01*
X459743Y709932D01*
X464821D01*
X467360Y712472D01*
X472438Y709932D02*
X477517D01*
X474978D01*
Y725167D01*
X472438Y722628D01*
M02*
