G04*
G04 #@! TF.GenerationSoftware,Altium Limited,Altium Designer,23.4.1 (23)*
G04*
G04 Layer_Color=8421504*
%FSLAX44Y44*%
%MOMM*%
G71*
G04*
G04 #@! TF.SameCoordinates,574EF0A3-D4D7-4E79-882F-14C39876F300*
G04*
G04*
G04 #@! TF.FilePolarity,Positive*
G04*
G01*
G75*
%ADD18O,1.9500X0.6000*%
%ADD19O,0.6000X1.9500*%
%ADD20R,2.1000X1.4000*%
%ADD21R,1.0500X1.8000*%
%ADD22R,1.8200X1.0200*%
%ADD23R,1.1046X1.7062*%
%ADD24R,1.8000X1.0000*%
%ADD25R,1.2500X1.8000*%
D18*
X527050Y741800D02*
D03*
Y733800D02*
D03*
Y725800D02*
D03*
Y717800D02*
D03*
Y709800D02*
D03*
Y701800D02*
D03*
Y693800D02*
D03*
Y685800D02*
D03*
X612050D02*
D03*
Y693800D02*
D03*
Y701800D02*
D03*
Y709800D02*
D03*
Y717800D02*
D03*
Y725800D02*
D03*
Y733800D02*
D03*
Y741800D02*
D03*
D19*
X541550Y671300D02*
D03*
X549550D02*
D03*
X557550D02*
D03*
X565550D02*
D03*
X573550D02*
D03*
X581550D02*
D03*
X589550D02*
D03*
X597550D02*
D03*
Y756300D02*
D03*
X589550D02*
D03*
X581550D02*
D03*
X573550D02*
D03*
X565550D02*
D03*
X557550D02*
D03*
X549550D02*
D03*
X541550D02*
D03*
D20*
X407450Y733150D02*
D03*
Y778150D02*
D03*
X316450Y733150D02*
D03*
Y778150D02*
D03*
D21*
X630950Y622300D02*
D03*
X600950D02*
D03*
X577850D02*
D03*
X547850D02*
D03*
X550700Y825500D02*
D03*
X520700D02*
D03*
X482600D02*
D03*
X452600D02*
D03*
X478550Y762000D02*
D03*
X448550D02*
D03*
D22*
X467360Y671800D02*
D03*
Y699800D02*
D03*
X666750Y671800D02*
D03*
Y699800D02*
D03*
D23*
X457200Y615950D02*
D03*
X483216D02*
D03*
X456584Y565150D02*
D03*
X482600D02*
D03*
D24*
X666750Y721600D02*
D03*
Y751600D02*
D03*
D25*
X581650Y825500D02*
D03*
X612150D02*
D03*
M02*
