G04*
G04 #@! TF.GenerationSoftware,Altium Limited,Altium Designer,23.4.1 (23)*
G04*
G04 Layer_Color=32896*
%FSLAX44Y44*%
%MOMM*%
G71*
G04*
G04 #@! TF.SameCoordinates,574EF0A3-D4D7-4E79-882F-14C39876F300*
G04*
G04*
G04 #@! TF.FilePolarity,Positive*
G04*
G01*
G75*
%ADD13C,0.1000*%
%ADD16C,0.0500*%
D13*
X295950Y715650D02*
Y795650D01*
Y715650D02*
X427950D01*
Y795650D01*
X295950D02*
X427950D01*
D16*
X593200Y610800D02*
X638700D01*
X593200D02*
Y633800D01*
X638700D01*
Y610800D02*
Y633800D01*
X540100Y610800D02*
X585600D01*
X540100D02*
Y633800D01*
X585600D01*
Y610800D02*
Y633800D01*
X512950Y814000D02*
X558450D01*
X512950D02*
Y837000D01*
X558450D01*
Y814000D02*
Y837000D01*
X444850Y814000D02*
X490350D01*
X444850D02*
Y837000D01*
X490350D01*
Y814000D02*
Y837000D01*
X440800Y750500D02*
X486300D01*
X440800D02*
Y773500D01*
X486300D01*
Y750500D02*
Y773500D01*
X456760Y706400D02*
X477960D01*
X456760Y665200D02*
Y706400D01*
Y665200D02*
X477960D01*
Y706400D01*
X656150D02*
X677350D01*
X656150Y665200D02*
Y706400D01*
Y665200D02*
X677350D01*
Y706400D01*
M02*
