G04*
G04 #@! TF.GenerationSoftware,Altium Limited,Altium Designer,23.4.1 (23)*
G04*
G04 Layer_Color=16711935*
%FSLAX44Y44*%
%MOMM*%
G71*
G04*
G04 #@! TF.SameCoordinates,574EF0A3-D4D7-4E79-882F-14C39876F300*
G04*
G04*
G04 #@! TF.FilePolarity,Negative*
G04*
G01*
G75*
%ADD32C,3.1500*%
%ADD33R,1.6580X1.6580*%
%ADD34C,1.6580*%
%ADD35C,2.1000*%
%ADD36R,2.1000X2.1000*%
%ADD37R,1.6580X1.6580*%
%ADD38C,1.7250*%
%ADD39R,1.7250X1.7250*%
%ADD40C,1.1800*%
D32*
X889000Y939800D02*
D03*
Y571500D02*
D03*
X317500D02*
D03*
Y939800D02*
D03*
D33*
X393700Y591350D02*
D03*
X869950Y819150D02*
D03*
D34*
X393700Y616350D02*
D03*
Y641350D02*
D03*
Y666350D02*
D03*
X520700Y933450D02*
D03*
X495700D02*
D03*
X615950Y932350D02*
D03*
X640950D02*
D03*
X754850Y933450D02*
D03*
X729850D02*
D03*
X704850D02*
D03*
X869950Y844150D02*
D03*
Y869150D02*
D03*
X858050Y742950D02*
D03*
X883050D02*
D03*
X908050D02*
D03*
X882650Y647700D02*
D03*
X857650D02*
D03*
X698500Y571500D02*
D03*
X723500D02*
D03*
X798500D02*
D03*
X748500D02*
D03*
X773500D02*
D03*
D35*
X381000Y838200D02*
D03*
D36*
Y889000D02*
D03*
D37*
X470700Y933450D02*
D03*
X590950Y932350D02*
D03*
X779850Y933450D02*
D03*
X833050Y742950D02*
D03*
X907650Y647700D02*
D03*
X823500Y571500D02*
D03*
D38*
X762000Y755650D02*
D03*
X793550Y830750D02*
D03*
X698500Y831850D02*
D03*
X749300Y654050D02*
D03*
D39*
X737000Y755650D02*
D03*
X768550Y830750D02*
D03*
X673500Y831850D02*
D03*
X774300Y654050D02*
D03*
D40*
X609600Y571500D02*
D03*
X560800D02*
D03*
M02*
